# xmcd CD database file
#
# Track frame offsets:
#	150
#	5700
#	19050
#	37650
#	46200
#	64050
#	70425
#	119325
#	131475
#	211650
#	220500
#	269850
#
# Disc length: 3735 seconds
#
# Revision: 0
# Processed by: cddbd v1.5.2PL0 Copyright (c) Steve Scherf et al.
# Submitted via: Feurio! 1.68 - http://www.feurio.com
#
DISCID=aa0e950c
DTITLE=Gerlinde Böpple - Bewusst entspannen
DYEAR=2008
DGENRE=Speech
TTITLE0=Vorwort
TTITLE1=Warum Sie Entspannung brauchen
TTITLE2=Was versteht man unter Stress
TTITLE3=Mit Entspannung Ruhe und Kraft finden
TTITLE4=Aktive Entspannung
TTITLE5=Einleitung Übung I
TTITLE6=Übung I: Atementspannung
TTITLE7=Einleitung Übung II
TTITLE8=Übung II: Yogaschlaf mit positivem Vorsatz
TTITLE9=Einleitung Übung III
TTITLE10=Übung III: Inneres Lächeln
TTITLE11=Ausklang und Hinweis 
EXTD=Mit angeleiteten Übungen
EXTT0=
EXTT1=
EXTT2=
EXTT3=
EXTT4=
EXTT5=
EXTT6=
EXTT7=
EXTT8=
EXTT9=
EXTT10=
EXTT11=
PLAYORDER=
